<svg width="130" height="32" viewBox="0 0 130 32" fill="none" xmlns="http://www.w3.org/2000/svg">
<path d="M0 32H32L0 0V32Z" fill="#0047B1"/>
<path d="M1.00136e-05 0L0 32L32 1.39876e-06L1.00136e-05 0Z" fill="#0066FF"/>
<path d="M54.1697 11.0122C54.5417 11.2042 54.7277 11.5102 54.7277 11.9302C54.7277 12.1822 54.6377 12.4282 54.4577 12.6682C54.2657 12.9202 54.0197 13.0462 53.7197 13.0462C53.5157 13.0462 53.3117 12.9922 53.1077 12.8842C52.5197 12.6082 51.8837 12.4702 51.1997 12.4702C50.3597 12.4702 49.6277 12.6502 49.0037 13.0102C48.3797 13.3582 47.8997 13.8562 47.5637 14.5042C47.2277 15.1402 47.0597 15.8722 47.0597 16.7002C47.0597 18.1162 47.4377 19.1902 48.1937 19.9222C48.9617 20.6542 49.9637 21.0202 51.1997 21.0202C51.9317 21.0202 52.5677 20.8822 53.1077 20.6062C53.3237 20.5102 53.5157 20.4622 53.6837 20.4622C53.9957 20.4622 54.2597 20.5942 54.4757 20.8582C54.6557 21.0862 54.7457 21.3322 54.7457 21.5962C54.7457 21.7882 54.6977 21.9622 54.6017 22.1182C54.5057 22.2742 54.3677 22.3942 54.1877 22.4782C53.2517 22.9462 52.2557 23.1802 51.1997 23.1802C50.0237 23.1802 48.9437 22.9342 47.9597 22.4422C46.9757 21.9382 46.1897 21.2002 45.6017 20.2282C45.0137 19.2562 44.7197 18.0802 44.7197 16.7002C44.7197 15.4762 44.9957 14.3782 45.5477 13.4062C46.1117 12.4342 46.8857 11.6782 47.8697 11.1382C48.8537 10.5862 49.9637 10.3102 51.1997 10.3102C52.2677 10.3102 53.2577 10.5442 54.1697 11.0122ZM68.2269 16.7002C68.2269 17.8882 67.9629 18.9802 67.4349 19.9762C66.9069 20.9602 66.1749 21.7402 65.2389 22.3162C64.3149 22.8922 63.2709 23.1802 62.1069 23.1802C60.9429 23.1802 59.8929 22.8922 58.9569 22.3162C58.0329 21.7402 57.3069 20.9602 56.7789 19.9762C56.2629 18.9802 56.0049 17.8882 56.0049 16.7002C56.0049 15.5122 56.2629 14.4262 56.7789 13.4422C57.3069 12.4462 58.0329 11.6602 58.9569 11.0842C59.8929 10.5082 60.9429 10.2202 62.1069 10.2202C63.2709 10.2202 64.3149 10.5082 65.2389 11.0842C66.1749 11.6602 66.9069 12.4462 67.4349 13.4422C67.9629 14.4262 68.2269 15.5122 68.2269 16.7002ZM65.8869 16.7002C65.8869 15.8962 65.7249 15.1702 65.4009 14.5222C65.0769 13.8622 64.6269 13.3402 64.0509 12.9562C63.4749 12.5722 62.8269 12.3802 62.1069 12.3802C61.3749 12.3802 60.7209 12.5722 60.1449 12.9562C59.5809 13.3282 59.1369 13.8442 58.8129 14.5042C58.5009 15.1642 58.3449 15.8962 58.3449 16.7002C58.3449 17.5042 58.5009 18.2362 58.8129 18.8962C59.1369 19.5562 59.5809 20.0782 60.1449 20.4622C60.7209 20.8342 61.3749 21.0202 62.1069 21.0202C62.8269 21.0202 63.4749 20.8282 64.0509 20.4442C64.6269 20.0602 65.0769 19.5442 65.4009 18.8962C65.7249 18.2362 65.8869 17.5042 65.8869 16.7002ZM81.8851 16.7002C81.8851 17.8882 81.6211 18.9802 81.0931 19.9762C80.5651 20.9602 79.8331 21.7402 78.8971 22.3162C77.9731 22.8922 76.9291 23.1802 75.7651 23.1802C74.6011 23.1802 73.5511 22.8922 72.6151 22.3162C71.6911 21.7402 70.9651 20.9602 70.4371 19.9762C69.9211 18.9802 69.6631 17.8882 69.6631 16.7002C69.6631 15.5122 69.9211 14.4262 70.4371 13.4422C70.9651 12.4462 71.6911 11.6602 72.6151 11.0842C73.5511 10.5082 74.6011 10.2202 75.7651 10.2202C76.9291 10.2202 77.9731 10.5082 78.8971 11.0842C79.8331 11.6602 80.5651 12.4462 81.0931 13.4422C81.6211 14.4262 81.8851 15.5122 81.8851 16.7002ZM79.5451 16.7002C79.5451 15.8962 79.3831 15.1702 79.0591 14.5222C78.7351 13.8622 78.2851 13.3402 77.7091 12.9562C77.1331 12.5722 76.4851 12.3802 75.7651 12.3802C75.0331 12.3802 74.3791 12.5722 73.8031 12.9562C73.2391 13.3282 72.7951 13.8442 72.4711 14.5042C72.1591 15.1642 72.0031 15.8962 72.0031 16.7002C72.0031 17.5042 72.1591 18.2362 72.4711 18.8962C72.7951 19.5562 73.2391 20.0782 73.8031 20.4622C74.3791 20.8342 75.0331 21.0202 75.7651 21.0202C76.4851 21.0202 77.1331 20.8282 77.7091 20.4442C78.2851 20.0602 78.7351 19.5442 79.0591 18.8962C79.3831 18.2362 79.5451 17.5042 79.5451 16.7002ZM90.8993 20.8942C91.2113 20.8942 91.4693 20.9962 91.6733 21.2002C91.8893 21.3922 91.9973 21.6442 91.9973 21.9562C91.9973 22.2562 91.8893 22.5082 91.6733 22.7122C91.4693 22.9042 91.2113 23.0002 90.8993 23.0002H85.0493C84.7373 23.0002 84.4733 22.8982 84.2573 22.6942C84.0533 22.4782 83.9513 22.2142 83.9513 21.9022V11.4982C83.9513 11.1862 84.0593 10.9282 84.2753 10.7242C84.4913 10.5082 84.7673 10.4002 85.1033 10.4002C85.4033 10.4002 85.6613 10.5082 85.8773 10.7242C86.0933 10.9282 86.2013 11.1862 86.2013 11.4982V20.8942H90.8993ZM105.475 16.7002C105.475 17.8882 105.211 18.9802 104.683 19.9762C104.155 20.9602 103.423 21.7402 102.487 22.3162C101.563 22.8922 100.519 23.1802 99.3547 23.1802C98.1907 23.1802 97.1407 22.8922 96.2047 22.3162C95.2809 21.7402 94.5549 20.9602 94.0269 19.9762C93.5109 18.9802 93.2529 17.8882 93.2529 16.7002C93.2529 15.5122 93.5109 14.4262 94.0269 13.4422C94.5549 12.4462 95.2809 11.6602 96.2047 11.0842C97.1407 10.5082 98.1907 10.2202 99.3547 10.2202C100.519 10.2202 101.563 10.5082 102.487 11.0842C103.423 11.6602 104.155 12.4462 104.683 13.4422C105.211 14.4262 105.475 15.5122 105.475 16.7002ZM103.135 16.7002C103.135 15.8962 102.973 15.1702 102.649 14.5222C102.325 13.8622 101.875 13.3402 101.299 12.9562C100.723 12.5722 100.075 12.3802 99.3547 12.3802C98.6227 12.3802 97.9687 12.5722 97.3927 12.9562C96.8287 13.3282 96.3847 13.8442 96.0607 14.5042C95.7489 15.1642 95.5929 15.8962 95.5929 16.7002C95.5929 17.5042 95.7489 18.2362 96.0607 18.8962C96.3847 19.5562 96.8287 20.0782 97.3927 20.4622C97.9687 20.8342 98.6227 21.0202 99.3547 21.0202C100.075 21.0202 100.723 20.8282 101.299 20.4442C101.875 20.0602 102.325 19.5442 102.649 18.8962C102.973 18.2362 103.135 17.5042 103.135 16.7002ZM117.423 21.2362C117.579 21.3322 117.699 21.4582 117.783 21.6142C117.879 21.7702 117.927 21.9322 117.927 22.1002C117.927 22.3162 117.855 22.5142 117.711 22.6942C117.531 22.9102 117.255 23.0182 116.883 23.0182C116.595 23.0182 116.331 22.9522 116.091 22.8202C115.227 22.3282 114.795 21.3262 114.795 19.8142C114.795 19.3822 114.651 19.0402 114.363 18.7882C114.087 18.5362 113.685 18.4102 113.157 18.4102H109.791V21.9022C109.791 22.2262 109.701 22.4902 109.521 22.6942C109.353 22.8982 109.125 23.0002 108.837 23.0002C108.489 23.0002 108.183 22.8982 107.919 22.6942C107.667 22.4782 107.541 22.2142 107.541 21.9022V11.4982C107.541 11.1862 107.643 10.9282 107.847 10.7242C108.063 10.5082 108.327 10.4002 108.639 10.4002H113.823C114.447 10.4002 115.035 10.5682 115.587 10.9042C116.139 11.2402 116.577 11.7022 116.901 12.2902C117.237 12.8782 117.405 13.5382 117.405 14.2702C117.405 14.8702 117.243 15.4582 116.919 16.0342C116.595 16.5982 116.175 17.0482 115.659 17.3842C116.415 17.9122 116.829 18.6202 116.901 19.5082C116.937 19.7002 116.955 19.8862 116.955 20.0662C117.003 20.4382 117.051 20.7082 117.099 20.8762C117.147 21.0322 117.255 21.1522 117.423 21.2362ZM113.733 16.5562C113.949 16.5562 114.159 16.4542 114.363 16.2502C114.567 16.0462 114.735 15.7762 114.867 15.4402C114.999 15.0922 115.065 14.7202 115.065 14.3242C115.065 13.9882 114.999 13.6822 114.867 13.4062C114.735 13.1182 114.567 12.8902 114.363 12.7222C114.159 12.5542 113.949 12.4702 113.733 12.4702H109.791V16.5562H113.733ZM123.949 23.1802C123.085 23.1802 122.317 23.0722 121.645 22.8562C120.973 22.6402 120.343 22.2742 119.755 21.7582C119.431 21.4702 119.269 21.1522 119.269 20.8042C119.269 20.5282 119.371 20.2882 119.575 20.0842C119.779 19.8682 120.025 19.7602 120.313 19.7602C120.541 19.7602 120.745 19.8322 120.925 19.9762C121.405 20.3722 121.873 20.6602 122.329 20.8402C122.785 21.0202 123.325 21.1102 123.949 21.1102C124.621 21.1102 125.197 20.9602 125.677 20.6602C126.169 20.3602 126.415 19.9882 126.415 19.5442C126.415 19.0042 126.175 18.5842 125.695 18.2842C125.215 17.9722 124.453 17.7382 123.409 17.5822C120.781 17.1982 119.467 15.9742 119.467 13.9102C119.467 13.1542 119.665 12.5002 120.061 11.9482C120.457 11.3842 120.997 10.9582 121.681 10.6702C122.365 10.3702 123.127 10.2202 123.967 10.2202C124.723 10.2202 125.431 10.3342 126.091 10.5622C126.763 10.7902 127.321 11.0902 127.765 11.4622C128.113 11.7382 128.287 12.0562 128.287 12.4162C128.287 12.6922 128.185 12.9382 127.981 13.1542C127.777 13.3582 127.537 13.4602 127.261 13.4602C127.081 13.4602 126.919 13.4062 126.775 13.2982C126.463 13.0462 126.025 12.8182 125.461 12.6142C124.909 12.3982 124.411 12.2902 123.967 12.2902C123.211 12.2902 122.623 12.4342 122.203 12.7222C121.795 12.9982 121.591 13.3642 121.591 13.8202C121.591 14.3362 121.801 14.7262 122.221 14.9902C122.653 15.2542 123.325 15.4702 124.237 15.6382C125.269 15.8182 126.091 16.0522 126.703 16.3402C127.327 16.6162 127.795 17.0002 128.107 17.4922C128.419 17.9722 128.575 18.6142 128.575 19.4182C128.575 20.1742 128.359 20.8402 127.927 21.4162C127.507 21.9802 126.943 22.4182 126.235 22.7302C125.527 23.0302 124.765 23.1802 123.949 23.1802Z" fill="#0066FF"/>
</svg>
