<svg width="135" height="32" viewBox="0 0 135 32" fill="none" xmlns="http://www.w3.org/2000/svg">
<path d="M0 31.427V0.661156H10.4551V11.9008H32.9466V0.661156H43.4016V31.427H32.9466V19.3058H10.4551V31.427H0Z" fill="#111111"/>
<path d="M80.0568 23.449C81.4918 23.831 83.3075 24.022 85.5039 24.022L83.3075 29.7521C80.0568 29.7521 77.1868 29.0615 74.6975 27.6804C71.6224 29.0909 67.9178 29.7961 63.5835 29.7961C52.8356 29.7961 47.4616 27.1809 47.4616 21.9504V21.5537C47.4616 18.1745 50.1413 16.0735 55.5006 15.2507C53.187 13.5464 52.0302 11.607 52.0302 9.43251V9.12397C52.0302 8.44812 52.1181 7.84573 52.2938 7.3168C52.4402 6.78788 52.7477 6.22957 53.2163 5.64187C53.6849 5.02479 54.2999 4.52525 55.0613 4.14325C55.8813 3.73187 56.9649 3.40863 58.312 3.17355C59.6299 2.90909 61.2113 2.77686 63.0563 2.77686H64.9453C72.1203 2.77686 75.7078 4.83379 75.7078 8.94766V9.12397C75.7078 9.32966 75.6932 9.53535 75.6639 9.74105H68.5474C68.5474 8.88889 68.2106 8.25712 67.5371 7.84573C66.8635 7.40496 65.6481 7.18457 63.891 7.18457C62.3681 7.18457 61.3138 7.36088 60.7281 7.7135C60.1424 8.06612 59.8495 8.55096 59.8495 9.16804C59.8495 9.78512 60.1424 10.3581 60.7281 10.8871C60.8745 11.0634 62.0753 11.9449 64.3303 13.5317C66.6146 15.0891 68.8403 16.6024 71.0074 18.0716L74.3021 20.3196C75.4735 18.4977 76.0592 16.2498 76.0592 13.5758H83.7029C83.5564 17.3958 82.3411 20.6869 80.0568 23.449ZM63.3638 24.7273C65.5896 24.7273 67.4931 24.5216 69.0746 24.1102L58.5756 17.2782C56.7306 17.9835 55.8081 19.1001 55.8081 20.6281V20.7163C55.8081 21.8329 56.4231 22.7879 57.6531 23.5813C58.8831 24.3453 60.7867 24.7273 63.3638 24.7273Z" fill="#111111"/>
<path d="M110.62 32C107.925 32 105.465 31.809 103.239 31.427C101.014 31.0156 99.1395 30.5014 97.6166 29.8843C96.0938 29.2672 94.7466 28.5179 93.5752 27.6364C92.4037 26.7254 91.4812 25.8145 90.8077 24.9036C90.1634 23.9633 89.6216 22.9789 89.1823 21.9504C88.743 20.8926 88.4501 19.9376 88.3037 19.0854C88.1866 18.2039 88.128 17.337 88.128 16.4848V15.2948C88.128 13.9431 88.2598 12.6795 88.5234 11.5041C88.7869 10.2994 89.3873 8.96235 90.3244 7.49311C91.2909 6.02387 92.5355 4.77502 94.0584 3.74656C95.6105 2.68871 97.807 1.80716 100.648 1.10193C103.488 0.36731 106.812 0 110.62 0H112.465C116.155 0 119.42 0.30854 122.261 0.92562C125.101 1.5427 127.283 2.3067 128.806 3.21763C130.358 4.09917 131.617 5.14233 132.584 6.34711C133.58 7.5225 134.224 8.58035 134.517 9.52066C134.81 10.4316 134.956 11.3131 134.956 12.1653V12.6061H123.798C123.71 12.2828 123.593 11.989 123.447 11.7245C123.33 11.4601 122.993 11.0487 122.436 10.4904C121.88 9.90266 121.192 9.41781 120.372 9.03581C119.581 8.62443 118.41 8.25712 116.857 7.93388C115.305 7.61065 113.519 7.44904 111.498 7.44904C109.097 7.44904 107.047 7.68411 105.348 8.15427C103.65 8.62443 102.361 9.2562 101.482 10.0496C100.633 10.843 100.033 11.6951 99.6813 12.6061C99.3298 13.4876 99.1541 14.4426 99.1541 15.4711V16C99.1541 16.9991 99.3591 17.9688 99.7691 18.9091C100.179 19.82 100.809 20.7163 101.658 21.5978C102.537 22.45 103.825 23.1405 105.524 23.6694C107.252 24.1983 109.272 24.4628 111.586 24.4628C118.497 24.4628 122.568 22.6703 123.798 19.0854C123.827 19.056 123.842 19.0266 123.842 18.9972H135V19.438C135 20.3489 134.839 21.2893 134.517 22.259C134.195 23.2286 133.536 24.3159 132.54 25.5207C131.544 26.7254 130.27 27.7833 128.718 28.6942C127.166 29.6051 124.97 30.3838 122.129 31.0303C119.317 31.6768 116.096 32 112.465 32H110.62Z" fill="#111111"/>
</svg>
