<svg width="58" height="23" viewBox="0 0 58 23" fill="none" xmlns="http://www.w3.org/2000/svg">
<path fill-rule="evenodd" clip-rule="evenodd" d="M58 21.467V23H50.368V21.467H58ZM39.684 21.467V23H32.053V21.467H39.684ZM45.639 21.467L45.025 23L44.419 21.467H45.639ZM28.542 21.467C27.3899 22.4643 25.9148 23.0091 24.391 23H12.21V21.467H28.542ZM10.684 21.467V23H0V21.467H10.684V21.467ZM39.684 18.4V19.933H32.053V18.4H39.684ZM46.832 18.4L46.238 19.933H43.82L43.222 18.4H46.831H46.832ZM30.068 18.4C29.9304 18.9394 29.7148 19.4559 29.428 19.933H12.21V18.4H30.068ZM10.684 18.4V19.933H0V18.4H10.684V18.4ZM58 18.4V19.933H50.368V18.4H58ZM54.947 15.333V16.867H50.368V15.333H54.948H54.947ZM39.684 15.333V16.867H35.105V15.333H39.685H39.684ZM48.029 15.333L47.429 16.867H42.623L42.019 15.333H48.029V15.333ZM29.855 15.333C29.992 15.823 30.068 16.336 30.068 16.867H24.421V15.333H29.855ZM19.842 15.333V16.867H15.263V15.333H19.843H19.842ZM7.632 15.333V16.867H3.052V15.333H7.632V15.333ZM54.947 12.267V13.8H50.368V12.267H54.948H54.947ZM39.684 12.267V13.8H35.105V12.267H39.685H39.684ZM49.225 12.267L48.628 13.8H41.408L40.817 12.267H49.225ZM27.977 12.267C28.504 12.699 28.957 13.218 29.305 13.8H15.263V12.267H27.977ZM7.632 12.267V13.8H3.052V12.267H7.632V12.267ZM44.599 9.2L45.026 10.44L45.454 9.2H54.947V10.733H50.368V9.324L49.849 10.734H40.188L39.684 9.324V10.734H35.105V9.2H44.6H44.599ZM7.632 9.2V10.733H3.052V9.2H7.632ZM29.305 9.2C28.9533 9.78324 28.5041 10.3018 27.977 10.733H15.263V9.2H29.305ZM54.947 6.133V7.667H45.983L46.523 6.133H54.947ZM43.534 6.133L44.074 7.667H35.105V6.133H43.535H43.534ZM30.068 6.133C30.068 6.664 29.992 7.178 29.855 7.667H24.42V6.133H30.068ZM19.842 6.133V7.667H15.263V6.133H19.843H19.842ZM7.632 6.133V7.667H3.052V6.133H7.632V6.133ZM42.477 3.067L43.007 4.6H32.054V3.067H42.478H42.477ZM58 3.067V4.6H47.04L47.59 3.067H58V3.067ZM29.427 3.067C29.711 3.54 29.931 4.055 30.068 4.6H12.211V3.067H29.427ZM10.684 3.067V4.6H0V3.067H10.684V3.067ZM41.406 0L41.946 1.533H32.053V0H41.406ZM58 0V1.533H48.119L48.647 0H58ZM24.39 0C25.991 0 27.447 0.581 28.542 1.533H12.211V0H24.39ZM10.685 0V1.533H0V0H10.684H10.685Z" fill="#161616"/>
</svg>
