<svg width="134" height="60" viewBox="0 0 134 60" fill="none" xmlns="http://www.w3.org/2000/svg">
<path d="M91.3374 33.3841L93.8394 23.9881H96.0714L92.4894 36.7501H90.2574L87.1614 27.1021L84.0654 36.7501H81.8514L78.2334 23.9881H80.5014L83.0574 33.3121L86.0454 23.9881H88.2954L91.3374 33.3841Z" fill="black"/>
<path d="M99.7182 36.7501H97.6482V27.9841H99.7182V36.7501ZM97.7202 25.8601C97.4562 25.5961 97.3242 25.2781 97.3242 24.9061C97.3242 24.5341 97.4562 24.2161 97.7202 23.9521C97.9842 23.6761 98.3022 23.5381 98.6742 23.5381C99.0582 23.5381 99.3822 23.6701 99.6462 23.9341C99.9102 24.1981 100.042 24.5221 100.042 24.9061C100.042 25.2781 99.9102 25.5961 99.6462 25.8601C99.3822 26.1241 99.0582 26.2561 98.6742 26.2561C98.3022 26.2561 97.9842 26.1241 97.7202 25.8601Z" fill="black"/>
<path d="M101.638 34.3741L103.456 33.8701C103.492 34.2901 103.666 34.6441 103.978 34.9321C104.29 35.2201 104.71 35.3641 105.238 35.3641C105.646 35.3641 105.964 35.2681 106.192 35.0761C106.432 34.8841 106.552 34.6441 106.552 34.3561C106.552 33.8521 106.21 33.5281 105.526 33.3841L104.23 33.0961C103.474 32.9281 102.892 32.6161 102.484 32.1601C102.076 31.7041 101.872 31.1641 101.872 30.5401C101.872 29.7721 102.184 29.1121 102.808 28.5601C103.432 27.9961 104.194 27.7141 105.094 27.7141C105.67 27.7141 106.18 27.7981 106.624 27.9661C107.068 28.1341 107.41 28.3561 107.65 28.6321C107.902 28.8961 108.094 29.1541 108.226 29.4061C108.358 29.6581 108.442 29.9101 108.478 30.1621L106.714 30.6661C106.666 30.3301 106.51 30.0301 106.246 29.7661C105.994 29.4901 105.61 29.3521 105.094 29.3521C104.734 29.3521 104.434 29.4541 104.194 29.6581C103.954 29.8501 103.834 30.0841 103.834 30.3601C103.834 30.8521 104.128 31.1581 104.716 31.2781L106.048 31.5481C106.864 31.7281 107.488 32.0521 107.92 32.5201C108.352 32.9881 108.568 33.5521 108.568 34.2121C108.568 34.9441 108.274 35.5981 107.686 36.1741C107.11 36.7381 106.3 37.0201 105.256 37.0201C104.656 37.0201 104.116 36.9301 103.636 36.7501C103.168 36.5701 102.796 36.3421 102.52 36.0661C102.256 35.7781 102.046 35.4961 101.89 35.2201C101.746 34.9321 101.662 34.6501 101.638 34.3741Z" fill="black"/>
<path d="M112.044 31.4041H116.346C116.322 30.8521 116.124 30.3901 115.752 30.0181C115.392 29.6461 114.87 29.4601 114.186 29.4601C113.562 29.4601 113.058 29.6581 112.674 30.0541C112.29 30.4381 112.08 30.8881 112.044 31.4041ZM116.58 33.6901L118.344 34.2481C118.092 35.0521 117.618 35.7181 116.922 36.2461C116.238 36.7621 115.392 37.0201 114.384 37.0201C113.136 37.0201 112.074 36.5941 111.198 35.7421C110.334 34.8901 109.902 33.7501 109.902 32.3221C109.902 30.9781 110.322 29.8741 111.162 29.0101C112.014 28.1461 113.016 27.7141 114.168 27.7141C115.512 27.7141 116.562 28.1281 117.318 28.9561C118.074 29.7721 118.452 30.8761 118.452 32.2681C118.452 32.6401 118.434 32.8621 118.398 32.9341H111.99C112.014 33.5941 112.254 34.1401 112.71 34.5721C113.178 35.0041 113.736 35.2201 114.384 35.2201C115.512 35.2201 116.244 34.7101 116.58 33.6901Z" fill="black"/>
<path d="M122.535 36.7501H120.447V23.7181H122.535V36.7501Z" fill="black"/>
<path d="M127.892 40.2961H125.66L127.766 35.7061L124.022 27.9841H126.38L128.9 33.5281L131.258 27.9841H133.472L127.892 40.2961Z" fill="black"/>
<path fill-rule="evenodd" clip-rule="evenodd" d="M30.0005 14.5713C24.3203 14.5722 19.7158 19.1764 19.7149 24.8562C19.7104 28.0497 20.4529 31.1998 21.8828 34.0553C22.1429 34.5746 22.4237 35.0811 22.7254 35.5747C25.2949 39.7768 29.2834 42.9205 33.9696 44.4373C34.519 44.6146 35.0778 44.7698 35.6459 44.9027C36.609 45.1246 37.587 45.2767 38.5719 45.3576C39.1373 45.4041 39.7086 45.4278 40.2861 45.4284V24.8562C40.2861 19.176 35.6811 14.5713 30.0005 14.5713ZM23.9394 18.796C27.2868 15.4489 32.714 15.4489 36.0615 18.796C36.4069 19.1412 36.7226 19.5149 37.0052 19.9131C36.2799 19.5926 35.4955 19.4273 34.7025 19.428C32.7297 19.428 30.9939 20.4288 30.0005 21.9347C29.0069 20.4288 27.2712 19.428 25.2984 19.428C24.5054 19.4273 23.721 19.5926 22.9957 19.9131C23.2783 19.5149 23.594 19.1412 23.9394 18.796ZM24.5101 35.1905C26.5652 38.3189 29.5007 40.7689 32.9466 42.2314C33.2722 42.3683 33.6002 42.496 33.9308 42.6144C33.3777 38.3411 29.7383 35.1422 25.4291 35.1417C25.1221 35.1417 24.8153 35.158 24.5101 35.1905ZM38.5719 43.6361C37.6033 43.5494 36.6429 43.3875 35.6994 43.1517C35.5218 39.874 33.7893 36.8784 31.0369 35.0897C34.1031 34.7799 36.8686 33.111 38.5719 30.5429V43.6361ZM26.8194 32.8157C30.0028 34.0875 33.6378 33.3405 36.0615 30.9163C37.6736 29.3123 38.5771 27.1299 38.5707 24.8557C38.5707 22.8079 36.8077 21.1418 34.7012 21.1418C32.5948 21.1418 30.8807 22.8079 30.8807 24.8557V28.8556H29.1183V24.8557C29.1183 22.8079 27.4049 21.1418 25.2977 21.1418C23.1906 21.1418 21.4283 22.8079 21.4283 24.8557C21.4285 24.9276 21.4294 24.9992 21.431 25.0708C21.5167 28.4976 23.636 31.5437 26.8194 32.8157ZM25.4291 27.1424C26.3759 27.1424 27.1435 26.3748 27.1435 25.428C27.1435 24.4812 26.3759 23.7137 25.4291 23.7137C24.4822 23.7137 23.7146 24.4812 23.7146 25.428C23.7146 26.3748 24.4822 27.1424 25.4291 27.1424ZM36.2862 25.428C36.2862 26.3748 35.5186 27.1424 34.5718 27.1424C33.625 27.1424 32.8573 26.3748 32.8573 25.428C32.8573 24.4812 33.625 23.7137 34.5718 23.7137C35.5186 23.7137 36.2862 24.4812 36.2862 25.428Z" fill="#005ACD"/>
<circle cx="30" cy="30" r="29.5" stroke="#C9CED6"/>
</svg>
