<svg width="375" height="352" viewBox="0 0 375 352" fill="none" xmlns="http://www.w3.org/2000/svg">
<path d="M335 0H40C17.9086 0 0 17.9086 0 40V352H375V40C375 17.9086 357.091 0 335 0Z" fill="#111111"/>
<path d="M329 13H46C27.7746 13 13 27.7746 13 46V352H362V46C362 27.7746 347.225 13 329 13Z" fill="white"/>
<path d="M99.978 152.272L94.53 162.688V169H92.346V162.688L86.874 152.272H89.298L93.426 160.744L97.554 152.272H99.978ZM108.018 169.216C106.786 169.216 105.666 168.936 104.658 168.376C103.666 167.816 102.882 167.024 102.306 166C101.746 164.96 101.466 163.76 101.466 162.4C101.466 161.056 101.754 159.872 102.33 158.848C102.922 157.808 103.722 157.016 104.73 156.472C105.738 155.912 106.866 155.632 108.114 155.632C109.362 155.632 110.49 155.912 111.498 156.472C112.506 157.016 113.298 157.8 113.874 158.824C114.466 159.848 114.762 161.04 114.762 162.4C114.762 163.76 114.458 164.96 113.85 166C113.258 167.024 112.45 167.816 111.426 168.376C110.402 168.936 109.266 169.216 108.018 169.216ZM108.018 167.296C108.802 167.296 109.538 167.112 110.226 166.744C110.914 166.376 111.466 165.824 111.882 165.088C112.314 164.352 112.53 163.456 112.53 162.4C112.53 161.344 112.322 160.448 111.906 159.712C111.49 158.976 110.946 158.432 110.274 158.08C109.602 157.712 108.874 157.528 108.09 157.528C107.29 157.528 106.554 157.712 105.882 158.08C105.226 158.432 104.698 158.976 104.298 159.712C103.898 160.448 103.698 161.344 103.698 162.4C103.698 163.472 103.89 164.376 104.274 165.112C104.674 165.848 105.202 166.4 105.858 166.768C106.514 167.12 107.234 167.296 108.018 167.296ZM129.297 155.848V169H127.113V167.056C126.697 167.728 126.113 168.256 125.361 168.64C124.625 169.008 123.809 169.192 122.913 169.192C121.889 169.192 120.969 168.984 120.153 168.568C119.337 168.136 118.689 167.496 118.209 166.648C117.745 165.8 117.513 164.768 117.513 163.552V155.848H119.673V163.264C119.673 164.56 120.001 165.56 120.657 166.264C121.313 166.952 122.209 167.296 123.345 167.296C124.513 167.296 125.433 166.936 126.105 166.216C126.777 165.496 127.113 164.448 127.113 163.072V155.848H129.297ZM135.169 157.984C135.553 157.232 136.097 156.648 136.801 156.232C137.521 155.816 138.393 155.608 139.417 155.608V157.864H138.841C136.393 157.864 135.169 159.192 135.169 161.848V169H132.985V155.848H135.169V157.984ZM159.52 157.168C159.52 158.56 159.04 159.72 158.08 160.648C157.136 161.56 155.688 162.016 153.736 162.016H150.52V169H148.336V152.272H153.736C155.624 152.272 157.056 152.728 158.032 153.64C159.024 154.552 159.52 155.728 159.52 157.168ZM153.736 160.216C154.952 160.216 155.848 159.952 156.424 159.424C157 158.896 157.288 158.144 157.288 157.168C157.288 155.104 156.104 154.072 153.736 154.072H150.52V160.216H153.736ZM164.419 157.984C164.803 157.232 165.347 156.648 166.051 156.232C166.771 155.816 167.643 155.608 168.667 155.608V157.864H168.091C165.643 157.864 164.419 159.192 164.419 161.848V169H162.235V155.848H164.419V157.984ZM176.924 169.216C175.692 169.216 174.572 168.936 173.564 168.376C172.572 167.816 171.788 167.024 171.212 166C170.652 164.96 170.372 163.76 170.372 162.4C170.372 161.056 170.66 159.872 171.236 158.848C171.828 157.808 172.628 157.016 173.636 156.472C174.644 155.912 175.772 155.632 177.02 155.632C178.268 155.632 179.396 155.912 180.404 156.472C181.412 157.016 182.204 157.8 182.78 158.824C183.372 159.848 183.668 161.04 183.668 162.4C183.668 163.76 183.364 164.96 182.756 166C182.164 167.024 181.356 167.816 180.332 168.376C179.308 168.936 178.172 169.216 176.924 169.216ZM176.924 167.296C177.708 167.296 178.444 167.112 179.132 166.744C179.82 166.376 180.372 165.824 180.788 165.088C181.22 164.352 181.436 163.456 181.436 162.4C181.436 161.344 181.228 160.448 180.812 159.712C180.396 158.976 179.852 158.432 179.18 158.08C178.508 157.712 177.78 157.528 176.996 157.528C176.196 157.528 175.46 157.712 174.788 158.08C174.132 158.432 173.604 158.976 173.204 159.712C172.804 160.448 172.604 161.344 172.604 162.4C172.604 163.472 172.796 164.376 173.18 165.112C173.58 165.848 174.108 166.4 174.764 166.768C175.42 167.12 176.14 167.296 176.924 167.296ZM187.715 153.712C187.299 153.712 186.947 153.568 186.659 153.28C186.387 152.992 186.251 152.64 186.251 152.224C186.251 151.808 186.387 151.456 186.659 151.168C186.947 150.88 187.299 150.736 187.715 150.736C188.131 150.736 188.475 150.88 188.747 151.168C189.035 151.456 189.179 151.808 189.179 152.224C189.179 152.64 189.035 152.992 188.747 153.28C188.475 153.568 188.131 153.712 187.715 153.712ZM188.795 171.856C188.795 173.024 188.499 173.88 187.907 174.424C187.315 174.968 186.451 175.24 185.315 175.24H184.043V173.392H184.955C185.563 173.392 185.987 173.272 186.227 173.032C186.483 172.792 186.611 172.384 186.611 171.808V155.848H188.795V171.856ZM204.493 161.92C204.493 162.336 204.469 162.776 204.421 163.24H193.909C193.989 164.536 194.429 165.552 195.229 166.288C196.045 167.008 197.029 167.368 198.181 167.368C199.125 167.368 199.909 167.152 200.533 166.72C201.173 166.272 201.621 165.68 201.877 164.944H204.229C203.877 166.208 203.173 167.24 202.117 168.04C201.061 168.824 199.749 169.216 198.181 169.216C196.933 169.216 195.813 168.936 194.821 168.376C193.845 167.816 193.077 167.024 192.517 166C191.957 164.96 191.677 163.76 191.677 162.4C191.677 161.04 191.949 159.848 192.493 158.824C193.037 157.8 193.797 157.016 194.773 156.472C195.765 155.912 196.901 155.632 198.181 155.632C199.429 155.632 200.533 155.904 201.493 156.448C202.453 156.992 203.189 157.744 203.701 158.704C204.229 159.648 204.493 160.72 204.493 161.92ZM202.237 161.464C202.237 160.632 202.053 159.92 201.685 159.328C201.317 158.72 200.813 158.264 200.173 157.96C199.549 157.64 198.853 157.48 198.085 157.48C196.981 157.48 196.037 157.832 195.253 158.536C194.485 159.24 194.045 160.216 193.933 161.464H202.237ZM206.559 162.4C206.559 161.04 206.831 159.856 207.375 158.848C207.919 157.824 208.671 157.032 209.631 156.472C210.607 155.912 211.719 155.632 212.967 155.632C214.583 155.632 215.911 156.024 216.951 156.808C218.007 157.592 218.703 158.68 219.039 160.072H216.687C216.463 159.272 216.023 158.64 215.367 158.176C214.727 157.712 213.927 157.48 212.967 157.48C211.719 157.48 210.711 157.912 209.943 158.776C209.175 159.624 208.791 160.832 208.791 162.4C208.791 163.984 209.175 165.208 209.943 166.072C210.711 166.936 211.719 167.368 212.967 167.368C213.927 167.368 214.727 167.144 215.367 166.696C216.007 166.248 216.447 165.608 216.687 164.776H219.039C218.687 166.12 217.983 167.2 216.927 168.016C215.871 168.816 214.551 169.216 212.967 169.216C211.719 169.216 210.607 168.936 209.631 168.376C208.671 167.816 207.919 167.024 207.375 166C206.831 164.976 206.559 163.776 206.559 162.4ZM224.617 157.648V165.4C224.617 166.04 224.753 166.496 225.025 166.768C225.297 167.024 225.769 167.152 226.441 167.152H228.049V169H226.081C224.865 169 223.953 168.72 223.345 168.16C222.737 167.6 222.433 166.68 222.433 165.4V157.648H220.729V155.848H222.433V152.536H224.617V155.848H228.049V157.648H224.617ZM249.982 152.272V169H247.798V161.416H239.278V169H237.094V152.272H239.278V159.616H247.798V152.272H249.982ZM265.711 161.92C265.711 162.336 265.687 162.776 265.639 163.24H255.127C255.207 164.536 255.647 165.552 256.447 166.288C257.263 167.008 258.247 167.368 259.399 167.368C260.343 167.368 261.127 167.152 261.751 166.72C262.391 166.272 262.839 165.68 263.095 164.944H265.447C265.095 166.208 264.391 167.24 263.335 168.04C262.279 168.824 260.967 169.216 259.399 169.216C258.151 169.216 257.031 168.936 256.039 168.376C255.063 167.816 254.295 167.024 253.735 166C253.175 164.96 252.895 163.76 252.895 162.4C252.895 161.04 253.167 159.848 253.711 158.824C254.255 157.8 255.015 157.016 255.991 156.472C256.983 155.912 258.119 155.632 259.399 155.632C260.647 155.632 261.751 155.904 262.711 156.448C263.671 156.992 264.407 157.744 264.919 158.704C265.447 159.648 265.711 160.72 265.711 161.92ZM263.455 161.464C263.455 160.632 263.271 159.92 262.903 159.328C262.535 158.72 262.031 158.264 261.391 157.96C260.767 157.64 260.071 157.48 259.303 157.48C258.199 157.48 257.255 157.832 256.471 158.536C255.703 159.24 255.263 160.216 255.151 161.464H263.455ZM270.778 157.984C271.162 157.232 271.706 156.648 272.41 156.232C273.13 155.816 274.002 155.608 275.026 155.608V157.864H274.45C272.002 157.864 270.778 159.192 270.778 161.848V169H268.594V155.848H270.778V157.984ZM289.547 161.92C289.547 162.336 289.523 162.776 289.475 163.24H278.963C279.043 164.536 279.483 165.552 280.283 166.288C281.099 167.008 282.083 167.368 283.235 167.368C284.179 167.368 284.963 167.152 285.587 166.72C286.227 166.272 286.675 165.68 286.931 164.944H289.283C288.931 166.208 288.227 167.24 287.171 168.04C286.115 168.824 284.803 169.216 283.235 169.216C281.987 169.216 280.867 168.936 279.875 168.376C278.899 167.816 278.131 167.024 277.571 166C277.011 164.96 276.731 163.76 276.731 162.4C276.731 161.04 277.003 159.848 277.547 158.824C278.091 157.8 278.851 157.016 279.827 156.472C280.819 155.912 281.955 155.632 283.235 155.632C284.483 155.632 285.587 155.904 286.547 156.448C287.507 156.992 288.243 157.744 288.755 158.704C289.283 159.648 289.547 160.72 289.547 161.92ZM287.291 161.464C287.291 160.632 287.107 159.92 286.739 159.328C286.371 158.72 285.867 158.264 285.227 157.96C284.603 157.64 283.907 157.48 283.139 157.48C282.035 157.48 281.091 157.832 280.307 158.536C279.539 159.24 279.099 160.216 278.987 161.464H287.291Z" fill="black"/>
</svg>
